<?xml version="1.0" encoding="UTF-8"?>
<svg id="Pdf" data-name="Capa 2" xmlns="http://www.w3.org/2000/svg" viewBox="0 0 177.75 230.31">
  <defs>
    <style>
      .cls-1 {
        fill: #0e47ab;
      }

      .cls-2 {
        letter-spacing: 0em;
      }

      .cls-3 {
        letter-spacing: -.05em;
      }

      .cls-4 {
        letter-spacing: -.01em;
      }

      .cls-5 {
        fill: #fff;
        font-size: 20.64px;
      }
    </style>
  </defs>
  <g id="Capa_1-2" data-name="Capa 1">
    <g>
      <path d="M83.91,78.64h7.28c1.92,0,3.48-.68,4.68-2.05,1.2-1.37,1.82-3.21,1.87-5.51v-14.84c0-2.31-.61-4.14-1.84-5.51-1.23-1.37-2.82-2.05-4.79-2.05h-7.21c-.34,0-.5,.17-.5,.5v28.97c0,.34,.17,.5,.5,.5Z"/>
      <path d="M40.6,60.77h7.28c1.97,0,3.57-.55,4.79-1.66,1.22-1.1,1.84-2.55,1.84-4.32s-.61-3.3-1.84-4.43c-1.22-1.13-2.82-1.69-4.79-1.69h-7.28c-.34,0-.5,.17-.5,.5v11.1c0,.34,.17,.5,.5,.5Z"/>
      <path d="M155.41,0H22.34C10,0,0,10,0,22.34V177.75H177.75V22.34c0-12.34-10-22.34-22.34-22.34Zm-39.44,39.73c0-.38,.12-.7,.36-.94,.24-.24,.55-.36,.94-.36h33.15c.38,0,.7,.12,.94,.36,.24,.24,.36,.55,.36,.94v7.64c0,.38-.12,.7-.36,.94s-.55,.36-.94,.36h-21.98c-.34,0-.5,.17-.5,.5v8.58c0,.34,.17,.5,.5,.5h13.91c.38,0,.7,.12,.94,.36,.24,.24,.36,.55,.36,.94v7.57c0,.38-.12,.7-.36,.94-.24,.24-.55,.36-.94,.36h-13.91c-.34,0-.5,.17-.5,.5v18.66c0,.38-.12,.7-.36,.94s-.55,.36-.94,.36h-9.37c-.39,0-.7-.12-.94-.36-.24-.24-.36-.55-.36-.94V39.73Zm-44.53,0c0-.38,.12-.7,.36-.94,.24-.24,.55-.36,.94-.36h17.94c3.75,0,7.06,.65,9.94,1.95,2.88,1.3,5.12,3.15,6.7,5.55,1.59,2.4,2.38,5.16,2.38,8.29v18.88c0,3.12-.79,5.88-2.38,8.29-1.58,2.4-3.82,4.25-6.7,5.55-2.88,1.3-6.2,1.95-9.94,1.95h-17.94c-.39,0-.7-.12-.94-.36-.24-.24-.36-.55-.36-.94V39.73Zm-43.3,0c0-.38,.12-.7,.36-.94,.24-.24,.55-.36,.94-.36h20.39c3.27,0,6.16,.67,8.68,2.02,2.52,1.35,4.47,3.23,5.84,5.66s2.05,5.22,2.05,8.39-.71,5.89-2.13,8.29c-1.42,2.4-3.42,4.25-6.02,5.55-2.59,1.3-5.6,1.95-9.01,1.95h-8.65c-.34,0-.5,.17-.5,.5v16.79c0,.38-.12,.7-.36,.94s-.55,.36-.94,.36h-9.37c-.38,0-.7-.12-.94-.36-.24-.24-.36-.55-.36-.94V39.73Zm131.25,116.12c0,2.21-1.79,4.01-4.01,4.01H22.37c-2.21,0-4.01-1.79-4.01-4.01h0c0-2.21,1.79-4.01,4.01-4.01H155.38c2.21,0,4.01,1.79,4.01,4.01h0Zm-4.01-17.26H22.37c-2.21,0-4.01-1.79-4.01-4.01s1.79-4.01,4.01-4.01H155.38c2.21,0,4.01,1.79,4.01,4.01s-1.79,4.01-4.01,4.01Zm0-21.63H22.37c-2.21,0-4.01-1.79-4.01-4.01s1.79-4.01,4.01-4.01H155.38c2.21,0,4.01,1.79,4.01,4.01s-1.79,4.01-4.01,4.01Z"/>
      <path d="M.19,218.31c0,6.6,5.4,12,12,12H165.56c6.6,0,12-5.4,12-12v-32.48H.19v32.48Z"/>
    </g>
    <text class="cls-5" transform="translate(24.08 210.21)"><tspan class="cls-4" x="0" y="0">V</tspan><tspan x="11.87" y="0">ER TU</tspan><tspan class="cls-3" x="66.23" y="0">T</tspan><tspan class="cls-2" x="76.98" y="0">ORIAL </tspan></text>
  </g>
</svg>