<?xml version="1.0" encoding="UTF-8"?>
<svg id="Capa 2" data-name="Capa 2" xmlns="http://www.w3.org/2000/svg" viewBox="0 0 177.75 226.69">
  <defs>
    <style>
      .cls-2 {
        letter-spacing: -.05em;
      }

      .cls-3 {
        letter-spacing: -.01em;
      }

      .cls-4 {
        fill: #fff;
        font-size: 20.64px;
      }
    </style>
  </defs>
  <g id="Capa_1-2" data-name="Capa 1">
    <g>
      <path d="M.19,214.69c0,6.6,5.4,12,12,12H165.56c6.6,0,12-5.4,12-12v-32.48H.19v32.48Z"/>
      <path d="M155.41,0H22.34C10,0,0,10,0,22.34V177.75H177.75V22.34c0-12.34-10-22.34-22.34-22.34ZM61.9,80.22c0-2.78,2.26-5.04,5.04-5.04s5.04,2.26,5.04,5.04v30.31l42.04-29.07-42.04-29.07v7.05c0,2.78-2.26,5.04-5.04,5.04s-5.04-2.26-5.04-5.04v-16.67c0-1.88,1.03-3.59,2.7-4.47,1.67-.87,3.66-.75,5.21,.32l55.95,38.69c1.36,.94,2.17,2.49,2.17,4.15s-.81,3.21-2.17,4.15l-55.95,38.69c-.85,.59-1.84,.9-2.87,.9-.81,0-1.62-.2-2.34-.58-1.67-.88-2.7-2.59-2.7-4.47v-39.93Zm92.07,75.68H46.87v3.39c0,2.94-2.4,5.34-5.34,5.34h0c-2.94,0-5.34-2.4-5.34-5.34v-3.39h-15.22c-2.21,0-4.01-1.79-4.01-4.01s1.79-4.01,4.01-4.01h15.22v-4.79c0-2.94,2.4-5.34,5.34-5.34h0c2.94,0,5.34,2.4,5.34,5.34v4.79h107.1c2.21,0,4.01,1.79,4.01,4.01s-1.79,4.01-4.01,4.01Z"/>
    </g>
    <text class="cls-4" transform="translate(24.08 206.6)"><tspan class="cls-3" x="0" y="0">V</tspan><tspan x="11.87" y="0">ER TU</tspan><tspan class="cls-2" x="66.23" y="0">T</tspan><tspan x="76.98" y="0">ORIAL </tspan></text>
  </g>
</svg>